<svg xmlns="http://www.w3.org/2000/svg" viewBox="0 0 100 100">
  <!-- Brain shape -->
  <path d="M20,50 C20,30 40,20 50,20 C60,20 80,30 80,50 C80,70 60,80 50,80 C40,80 20,70 20,50 Z" fill="#e67e22"/>
  <!-- Neural connections -->
  <path d="M30,40 C35,35 40,35 45,40 C50,45 55,45 60,40" stroke="white" stroke-width="2" fill="none"/>
  <path d="M30,50 C40,45 50,55 60,50" stroke="white" stroke-width="2" fill="none"/>
  <path d="M30,60 C35,65 40,65 45,60 C50,55 55,55 60,60" stroke="white" stroke-width="2" fill="none"/>
  <!-- Processing units -->
  <circle cx="40" cy="40" r="3" fill="#f1c40f"/>
  <circle cx="50" cy="50" r="3" fill="#f1c40f"/>
  <circle cx="60" cy="40" r="3" fill="#f1c40f"/>
  <circle cx="40" cy="60" r="3" fill="#f1c40f"/>
  <circle cx="60" cy="60" r="3" fill="#f1c40f"/>
</svg>